<svg height="512" viewBox="0 0 512 512" width="512" xmlns="http://www.w3.org/2000/svg" xmlns:xlink="http://www.w3.org/1999/xlink"><linearGradient id="a" gradientUnits="userSpaceOnUse" x1="-27.74" x2="490.754" y1="451.74" y2="-66.754" data-name="New Gradient Swatch 1"><stop offset="0" stop-color="#003f8a"/><stop offset=".518" stop-color="#00d7df"/><stop offset="1" stop-color="#006df0"/></linearGradient><linearGradient id="b" x1="48.26" x2="566.754" xlink:href="#a" y1="527.74" y2="9.246"/><linearGradient id="c" x1="-30.088" x2="488.405" xlink:href="#a" y1="449.391" y2="-69.102"/><g><path d="m256 80a88 88 0 1 0 88 88 88.1 88.1 0 0 0 -88-88zm0 160a72 72 0 1 1 72-72 72.083 72.083 0 0 1 -72 72z" fill="url(#a)"/><path d="m476 176h-100.27c.17-2.65.27-5.31.27-8a120 120 0 0 0 -240 0c0 2.69.1 5.35.27 8h-100.27a28.031 28.031 0 0 0 -28 28v232a28.031 28.031 0 0 0 28 28h440a28.031 28.031 0 0 0 28-28v-232a28.031 28.031 0 0 0 -28-28zm-220-112a104 104 0 1 1 -104 104 104.112 104.112 0 0 1 104-104zm-220 128h102.41a120.018 120.018 0 0 0 235.18 0h102.41a12.007 12.007 0 0 1 11.98 11.61l-231.98 146.92-231.98-146.92a12.007 12.007 0 0 1 11.98-11.61zm-.16 255.99a12.007 12.007 0 0 1 -11.84-11.99v-213.46l117.55 74.44zm19.53.01 99.71-142.45 96.64 61.21a8.006 8.006 0 0 0 8.56 0l96.64-61.21 99.71 142.45zm432.63-12a12.007 12.007 0 0 1 -11.84 11.99l-105.71-151.01 117.55-74.44z" fill="url(#b)"/><path d="m296 152a24.032 24.032 0 0 0 -24-24 8 8 0 0 0 -16 0h-8a8 8 0 0 0 -16 0h-8a8 8 0 0 0 0 16v48a8 8 0 0 0 0 16h8a8 8 0 0 0 16 0h8.07a7.992 7.992 0 0 0 15.86 0h.07a23.985 23.985 0 0 0 17.87-40 23.9 23.9 0 0 0 6.13-16zm-24 40h-32v-16h32a8 8 0 0 1 0 16zm0-32h-32v-16h32a8 8 0 0 1 0 16z" fill="url(#c)"/></g></svg>